<svg width="17" height="20" viewBox="0 0 17 20" fill="none" xmlns="http://www.w3.org/2000/svg">
<path d="M17.0001 18.8372C17.0001 19.476 16.482 20 15.8406 20H1.88027C1.24209 20 0.720703 19.478 0.720703 18.8372C0.720703 14.342 4.36485 10.6976 8.86034 10.6976C13.3558 10.6976 17 14.342 17 18.8372H17.0001ZM8.86051 12.093C5.21345 12.093 2.24281 14.9877 2.12022 18.6049H15.6005C15.4778 14.9876 12.5072 12.093 8.86017 12.093H8.86051ZM8.86051 9.7674C6.16338 9.7674 3.97664 7.58099 3.97664 4.88353C3.97664 2.18641 6.16338 0 8.86051 0C11.5576 0 13.7444 2.18641 13.7444 4.88353C13.7444 7.58099 11.5576 9.7674 8.86051 9.7674ZM8.86051 8.37195C10.787 8.37195 12.3489 6.81038 12.3489 4.88353C12.3489 2.95701 10.787 1.39512 8.86051 1.39512C6.93399 1.39512 5.37209 2.95701 5.37209 4.88353C5.37209 6.81038 6.93399 8.37195 8.86051 8.37195Z" fill="white"/>
</svg>
