<svg width="19" height="21" viewBox="0 0 19 21" fill="none" xmlns="http://www.w3.org/2000/svg">
<path d="M17.125 4.29949L10.0734 0.270065H10.0736C9.76726 0.0932237 9.41992 0 9.0662 0C8.71248 0 8.36518 0.0932237 8.05877 0.270065L1.00717 4.29949H1.00741C0.700333 4.47657 0.445493 4.73164 0.268669 5.03895C0.0918277 5.34602 -0.000928388 5.69458 7.02829e-06 6.04896V14.1079C-0.000929887 14.4623 0.0918217 14.8109 0.268669 15.1179C0.445511 15.4252 0.700351 15.6803 1.00741 15.8574L8.05901 19.8868H8.05877C8.68226 20.2468 9.45008 20.2468 10.0736 19.8868L17.1252 15.8574H17.125C17.4321 15.6803 17.6869 15.4252 17.8637 15.1179C18.0406 14.8109 18.1333 14.4623 18.1324 14.1079V6.04896C18.1333 5.69457 18.0406 5.34602 17.8637 5.03895C17.6869 4.73164 17.4321 4.47657 17.125 4.29949ZM16.1178 14.1076L9.06621 18.137L2.01461 14.1076V6.0486L9.06621 2.01917L16.1178 6.0486V14.1076Z" fill="white"/>
<path d="M13 9.20755V10.5208H5V9.20755H13ZM9.74549 6V14H8.26253V6H9.74549Z" fill="white"/>
</svg>
