<svg width="20" height="20" viewBox="0 0 20 20" fill="none" xmlns="http://www.w3.org/2000/svg">
<path d="M9.57835 0.132205L0.276103 6.79888C0.104315 6.92335 -0.00112875 7.1275 9.11702e-06 7.33368V19.3333C9.11702e-06 19.6824 0.332394 20 0.697719 20H6.97673C7.34205 20 7.67444 19.6824 7.67444 19.3333V12.4448H12.3256V19.3333C12.3256 19.6824 12.658 20 13.0233 20H19.3023C19.6676 20 20 19.6824 20 19.3333V7.33368C20 7.12767 19.8957 6.92352 19.7239 6.79888L10.4217 0.132205C10.117 -0.0525647 9.85148 -0.0353624 9.5786 0.132205H9.57835ZM9.99977 1.50018L18.6043 7.66685V18.6669H13.7207V11.7784C13.7207 11.4293 13.3883 10.6673 13.023 10.6673H6.9765C6.61118 10.6673 6.27879 11.4293 6.27879 11.7784V18.6669H1.39511V7.66685L9.99977 1.50018Z" fill="white"/>
</svg>
